<svg width="37" height="20" viewBox="0 0 37 20" fill="none" xmlns="http://www.w3.org/2000/svg">
  <path
    d="M7.57942 14.047C6.80326 14.6822 5.8069 15 4.59036 15C3.69861 15 2.92793 14.8815 2.27769 14.6436C1.62744 14.4062 1.03498 14.0055 0.5 13.442L1.91576 11.9503C2.54534 12.6133 3.44193 12.9447 4.60618 12.9447C5.2561 12.9447 5.7517 12.8176 6.09264 12.5635C6.43391 12.3092 6.60405 11.9449 6.60405 11.4696C6.60405 11.061 6.48879 10.7349 6.25795 10.4917C6.05874 10.2928 5.72296 10.1602 5.25126 10.0939L3.91396 9.87845C2.9699 9.73469 2.24637 9.4086 1.7427 8.90055C1.20804 8.34819 0.940386 7.57459 0.940386 6.58011C0.940386 5.50817 1.29166 4.64377 1.99453 3.98619C2.69741 3.32861 3.6463 3 4.84219 3C6.35222 3 7.55876 3.45868 8.46052 4.37569L7.07608 5.81768C6.55175 5.27612 5.78592 5.00552 4.77923 5.00552C4.22294 5.00552 3.79869 5.14641 3.50489 5.42818C3.21141 5.70994 3.0645 6.0663 3.0645 6.49724C3.0645 6.85071 3.16943 7.13248 3.37897 7.34254C3.62015 7.57458 3.9611 7.72376 4.40148 7.79005L5.73878 8.00552C6.69349 8.14929 7.40637 8.45844 7.8784 8.9337C8.45535 9.49724 8.74367 10.326 8.74367 11.4199C8.74367 12.5358 8.35591 13.4117 7.57942 14.047Z"
    fill="#666C7B"/>
  <path fill-rule="evenodd" clip-rule="evenodd"
        d="M16.3109 13.9392C15.6604 14.6465 14.8112 15 13.7623 15C12.7239 15 11.8796 14.6465 11.2294 13.9392C10.8804 13.5555 10.6285 13.0852 10.4978 12.5718C10.3667 12.058 10.3012 11.3925 10.3012 10.5746C10.3012 9.75666 10.3667 9.09368 10.4978 8.58563C10.6289 8.07723 10.8726 7.62431 11.2294 7.22652C11.8796 6.51922 12.7239 6.16575 13.7623 6.16575C14.8319 6.16575 15.6817 6.51922 16.3109 7.22652C16.6677 7.62431 16.9115 8.07759 17.0425 8.58563C17.1733 9.09368 17.2392 9.75666 17.2392 10.5746C17.2392 11.4033 17.1733 12.0746 17.0425 12.5884C16.9137 13.0978 16.6616 13.5633 16.3109 13.9392ZM12.8182 12.6796C13.0594 12.9336 13.3742 13.0608 13.7623 13.0608C14.161 13.0608 14.481 12.9336 14.7218 12.6796C15.0366 12.3592 15.1938 11.6573 15.1938 10.5746C15.1938 9.50264 15.0366 8.80687 14.7218 8.48619C14.4803 8.23216 14.1607 8.10497 13.7623 8.10497C13.3742 8.10497 13.0594 8.23216 12.8182 8.48619C12.5037 8.80651 12.3465 9.50264 12.3465 10.5746C12.3465 11.6573 12.5037 12.3589 12.8182 12.6796Z"
        fill="#666C7B"/>
  <path
    d="M22.6668 13.0773V14.9006H21.5026C20.7158 14.9006 20.1204 14.6577 19.7168 14.1713C19.3129 13.6848 19.1111 13.1047 19.1111 12.4309V3.09945H21.1565V12.2983C21.1565 12.8179 21.398 13.0773 21.88 13.0773H22.6668Z"
    fill="#666C7B"/>
  <path d="M26.69 6.51381V14.9006H24.6447V6.51381H26.69Z" fill="#666C7B"/>
  <path fill-rule="evenodd" clip-rule="evenodd"
        d="M33.5021 14.0884C32.9881 14.6962 32.3114 15 31.4726 15C30.6125 15 29.9464 14.7402 29.4747 14.221C29.118 13.8344 28.8874 13.3537 28.7825 12.779C28.6773 12.2043 28.6249 11.4696 28.6249 10.5746C28.6249 9.69073 28.6773 8.96145 28.7825 8.38674C28.8874 7.81203 29.118 7.33137 29.4747 6.94475C29.9464 6.42517 30.6073 6.16575 31.4568 6.16575C32.2959 6.16575 32.962 6.45292 33.455 7.02762V3.09945H35.5V14.9006H33.5021V14.0884ZM31.3231 12.8785C31.5172 12.9999 31.7609 13.0608 32.0547 13.0608C32.3485 13.0608 32.5923 12.9999 32.7863 12.8785C32.9801 12.7567 33.1244 12.5747 33.219 12.3315C33.3142 12.0846 33.3778 11.8254 33.4075 11.5608C33.4392 11.2902 33.455 10.9612 33.455 10.5746C33.455 9.76783 33.3633 9.15458 33.1796 8.73481C32.9959 8.31504 32.621 8.10497 32.0547 8.10497C31.7609 8.10497 31.5172 8.16586 31.3231 8.28729C31.1294 8.40908 30.9873 8.59104 30.8982 8.83425C30.8094 9.07699 30.7484 9.33023 30.7174 9.5884C30.6861 9.84819 30.6703 10.1768 30.6703 10.5746C30.6703 10.9724 30.6861 11.3013 30.7174 11.5608C30.7491 11.8215 30.8098 12.0774 30.8982 12.3232C30.9877 12.5718 31.1294 12.757 31.3231 12.8785Z"
        fill="#666C7B"/>
  <path d="M26.7058 3.03321V4.79011H24.6134V3.03321H26.7058Z" fill="#666C7B"/>
</svg>